<?xml version="1.0" encoding="utf-8"?>
<!-- Generator: Adobe Illustrator 21.1.0, SVG Export Plug-In . SVG Version: 6.00 Build 0)  -->
<svg version="1.1" id="Layer_1" xmlns="http://www.w3.org/2000/svg" xmlns:xlink="http://www.w3.org/1999/xlink" x="0px" y="0px"
	 viewBox="0 0 100 100" style="enable-background:new 0 0 100 100;" xml:space="preserve">
<style type="text/css">
	.st0{fill:#FFFFFF;}
</style>
<title>14</title>
<g>
	<path class="st0" d="M76.3,8.5H62.5c-1.1,0-2,0.9-2,2V19l-9.2-8.8c-0.8-0.7-2-0.7-2.8,0L4.5,52.4c-0.8,0.7-0.9,2-0.2,2.8
		c0.7,0.8,2,0.9,2.8,0.2c0,0,0.1-0.1,0.1-0.1l10.1-9.7v37.8c0,4.4,3.6,8,8,8h49.3c4.4,0,8-3.6,8-8V45.6l10.2,9.7
		c0.8,0.8,2,0.8,2.8,0.1c0.8-0.8,0.8-2,0.1-2.8c0,0-0.1-0.1-0.1-0.1L78.3,36V10.5C78.3,9.4,77.4,8.5,76.3,8.5z M64.6,12.5h9.8v19.6
		l-9.8-9.3V12.5z M57,87.5H43V63.6h14V87.5z M78.6,83.5c0,2.2-1.8,4-4,4H61V61.6c0-1.1-0.9-2-2-2H41c-1.1,0-2,0.9-2,2v25.9H25.4
		c-2.2,0-4-1.8-4-4V41.8L50,14.5l28.6,27.3L78.6,83.5z"/>
</g>
</svg>
