<?xml version="1.0" encoding="utf-8"?>
<!-- Generator: Adobe Illustrator 21.1.0, SVG Export Plug-In . SVG Version: 6.00 Build 0)  -->
<svg version="1.1" id="Layer_1" xmlns="http://www.w3.org/2000/svg" xmlns:xlink="http://www.w3.org/1999/xlink" x="0px" y="0px"
	 viewBox="0 0 100 99" style="enable-background:new 0 0 100 99;" xml:space="preserve">
<style type="text/css">
	.st0{fill:#FFFFFF;}
</style>
<path class="st0" d="M43.1,59.7c2,0,3.6-1.6,3.6-3.6s-1.6-3.6-3.6-3.6c-2,0-3.6,1.6-3.6,3.6S41.1,59.7,43.1,59.7z M43.1,54.4
	c0.9,0,1.6,0.7,1.6,1.6s-0.7,1.6-1.6,1.6s-1.6-0.7-1.6-1.6S42.2,54.4,43.1,54.4z"/>
<path class="st0" d="M43.9,64.1c-2,0-3.6,1.6-3.6,3.6s1.6,3.6,3.6,3.6s3.6-1.6,3.6-3.6S45.9,64.1,43.9,64.1z M43.9,69.3
	c-0.9,0-1.6-0.7-1.6-1.6s0.7-1.6,1.6-1.6s1.6,0.7,1.6,1.6S44.8,69.3,43.9,69.3z"/>
<path class="st0" d="M35.6,67c2,0,3.6-1.6,3.6-3.6s-1.6-3.6-3.6-3.6c-2,0-3.6,1.6-3.6,3.6S33.6,67,35.6,67z M35.6,61.7
	c0.9,0,1.6,0.7,1.6,1.6c0,0.9-0.7,1.6-1.6,1.6s-1.6-0.7-1.6-1.6S34.7,61.7,35.6,61.7z"/>
<path class="st0" d="M25.5,75.3c2,0,3.6-1.6,3.6-3.6S27.5,68,25.5,68c-2,0-3.6,1.6-3.6,3.6S23.6,75.3,25.5,75.3z M25.5,70
	c0.9,0,1.6,0.7,1.6,1.6s-0.7,1.6-1.6,1.6s-1.6-0.7-1.6-1.6S24.7,70,25.5,70z"/>
<path class="st0" d="M19.9,24.2c0.2,0.3,0.5,0.6,0.9,0.6l3.2,0l1.8,2.7c0.2,0.3,0.5,0.4,0.8,0.4c0,0,0.1,0,0.1,0
	c0.4-0.1,0.7-0.3,0.8-0.7l1-3.1l3.1-0.9c0.4-0.1,0.6-0.4,0.7-0.8c0.1-0.4-0.1-0.8-0.4-1l-2.6-1.9l0.1-3.2c0-0.4-0.2-0.7-0.5-0.9
	c-0.3-0.2-0.7-0.1-1.1,0.1l-2.6,1.9l-3-1.1c-0.4-0.1-0.8,0-1,0.2c-0.3,0.3-0.4,0.7-0.3,1l1,3.1l-2,2.6
	C19.8,23.5,19.7,23.9,19.9,24.2z M24,20.5l-0.5-1.7l1.6,0.6c0.3,0.1,0.7,0.1,0.9-0.1l1.4-1l0,1.7c0,0.3,0.1,0.6,0.4,0.8l1.4,1
	l-1.7,0.5c-0.3,0.1-0.6,0.3-0.7,0.6l-0.5,1.6l-1-1.4c-0.2-0.3-0.5-0.4-0.8-0.4l-1.7,0l1.1-1.4C24.1,21.2,24.1,20.8,24,20.5z"/>
<path class="st0" d="M84.4,13.2c-0.2-0.3-0.6-0.4-1-0.3l-3.2,0.7l-2.4-2.2c-0.3-0.3-0.7-0.3-1-0.2c-0.4,0.1-0.6,0.5-0.6,0.8
	l-0.3,3.2l-2.8,1.6c-0.3,0.2-0.5,0.5-0.5,0.9s0.3,0.7,0.6,0.9l3,1.3l0.6,3.2c0.1,0.4,0.4,0.7,0.7,0.8c0.1,0,0.2,0,0.3,0
	c0.3,0,0.6-0.1,0.8-0.3l2.1-2.4l3.2,0.4c0.4,0,0.8-0.1,1-0.4c0.2-0.3,0.2-0.7,0-1.1l-1.6-2.8l1.4-2.9C84.7,14,84.7,13.5,84.4,13.2z
	 M80.4,19.1c-0.3,0-0.7,0.1-0.9,0.3l-1.1,1.3L78,19c-0.1-0.3-0.3-0.6-0.6-0.7l-1.6-0.7l1.5-0.8c0.3-0.2,0.5-0.5,0.5-0.8l0.2-1.7
	l1.3,1.2c0.2,0.2,0.6,0.3,0.9,0.2l1.7-0.4l-0.7,1.6c-0.1,0.3-0.1,0.6,0,0.9l0.9,1.5L80.4,19.1z"/>
<path class="st0" d="M78.8,65c-2.1,0-3.8,1.7-3.8,3.8s1.7,3.8,3.8,3.8c2.1,0,3.8-1.7,3.8-3.8S80.9,65,78.8,65z M78.8,70.7
	c-1,0-1.8-0.8-1.8-1.8s0.8-1.8,1.8-1.8s1.8,0.8,1.8,1.8S79.8,70.7,78.8,70.7z"/>
<path class="st0" d="M50.6,12.5c-2.1,0-3.8,1.7-3.8,3.8s1.7,3.8,3.8,3.8c2.1,0,3.8-1.7,3.8-3.8S52.7,12.5,50.6,12.5z M50.6,18.1
	c-1,0-1.8-0.8-1.8-1.8s0.8-1.8,1.8-1.8s1.8,0.8,1.8,1.8S51.6,18.1,50.6,18.1z"/>
<path class="st0" d="M66.8,31.3c0,2.1,1.7,3.8,3.8,3.8c2.1,0,3.8-1.7,3.8-3.8s-1.7-3.8-3.8-3.8C68.5,27.4,66.8,29.2,66.8,31.3z
	 M72.5,31.3c0,1-0.8,1.8-1.8,1.8s-1.8-0.8-1.8-1.8s0.8-1.8,1.8-1.8S72.5,30.3,72.5,31.3z"/>
<path class="st0" d="M11,89.8c0.1,0,0.3,0,0.4-0.1L67.8,66c0.3-0.1,0.5-0.4,0.6-0.7c0.1-0.3,0-0.7-0.3-0.9L51.8,48.1L35.5,31.8
	c-0.2-0.2-0.6-0.3-0.9-0.3c-0.3,0.1-0.6,0.3-0.7,0.6L10.1,88.5c-0.2,0.4-0.1,0.8,0.2,1.1C10.5,89.7,10.8,89.8,11,89.8z M19.2,81.4
	c0-0.9,0.7-1.6,1.6-1.6s1.6,0.7,1.6,1.6S21.7,83,20.8,83S19.2,82.3,19.2,81.4z M33.2,75.4c0-0.9,0.7-1.6,1.6-1.6s1.6,0.7,1.6,1.6
	s-0.7,1.6-1.6,1.6S33.2,76.3,33.2,75.4z M52.6,67.7c0-0.9,0.7-1.6,1.6-1.6s1.6,0.7,1.6,1.6s-0.7,1.6-1.6,1.6S52.6,68.6,52.6,67.7z
	 M55.9,56c0,0.9-0.7,1.6-1.6,1.6s-1.6-0.7-1.6-1.6s0.7-1.6,1.6-1.6S55.9,55.1,55.9,56z M46.4,46.8c0,0.9-0.7,1.6-1.6,1.6
	s-1.6-0.7-1.6-1.6s0.7-1.6,1.6-1.6S46.4,45.9,46.4,46.8z M32.2,45.2c0.9,0,1.6,0.7,1.6,1.6s-0.7,1.6-1.6,1.6s-1.6-0.7-1.6-1.6
	S31.4,45.2,32.2,45.2z M27,57c0.9,0,1.6,0.7,1.6,1.6s-0.7,1.6-1.6,1.6s-1.6-0.7-1.6-1.6S26.1,57,27,57z M24,60.7
	c0.6,1,1.8,1.6,3,1.6c2,0,3.6-1.6,3.6-3.6S29,55,27,55c-0.2,0-0.4,0-0.7,0.1l2.8-6.5c0.6,1.1,1.8,1.9,3.1,1.9c2,0,3.6-1.6,3.6-3.6
	s-1.6-3.6-3.6-3.6c-0.3,0-0.6,0.1-0.9,0.1l3.8-9.1l9,9c-1.7,0.3-3,1.8-3,3.6c0,2,1.6,3.6,3.6,3.6c1.8,0,3.3-1.3,3.6-3l5.1,5.1
	c-1.6,0.4-2.8,1.8-2.8,3.5c0,2,1.6,3.6,3.6,3.6c1.7,0,3.1-1.2,3.5-2.8l7.8,7.8L57.8,68c0-0.1,0-0.2,0-0.4c0-2-1.6-3.6-3.6-3.6
	s-3.6,1.6-3.6,3.6c0,1.1,0.5,2.2,1.4,2.8l-13.6,5.7c0.1-0.2,0.1-0.5,0.1-0.8c0-2-1.6-3.6-3.6-3.6s-3.6,1.6-3.6,3.6
	c0,1.3,0.7,2.4,1.7,3.1l-8.6,3.6c0-0.2,0.1-0.5,0.1-0.7c0-2-1.6-3.6-3.6-3.6c-2,0-3.6,1.6-3.6,3.6c0,1.3,0.7,2.4,1.7,3L12.9,87
	L24,60.7z"/>
<path class="st0" d="M54.7,39.7c0.3,0,0.6-0.1,0.8-0.4c0.3-0.5,8.2-11.4,6-28.3c-0.1-0.5-0.6-0.9-1.1-0.9c-0.5,0.1-0.9,0.6-0.9,1.1
	C61.6,27.4,54,38,53.9,38.1c-0.3,0.4-0.2,1.1,0.2,1.4C54.3,39.7,54.5,39.7,54.7,39.7z"/>
<path class="st0" d="M60.9,46.3c0.2,0,0.4-0.1,0.6-0.2c0.1-0.1,12.1-9.4,27-3.5c0.5,0.2,1.1,0,1.3-0.6c0.2-0.5,0-1.1-0.6-1.3
	c-16-6.4-28.8,3.7-29,3.8c-0.4,0.3-0.5,1-0.2,1.4C60.3,46.2,60.6,46.3,60.9,46.3z"/>
<path class="st0" d="M43.2,32.1c0.1,0,0.2,0,0.2,0c0.5,0,0.9-0.3,1-0.8c0.1-0.4,2.3-10.2-4.4-16.1c-0.4-0.4-1-0.3-1.4,0.1
	c-0.4,0.4-0.3,1,0.1,1.4c5.8,5.1,3.8,14.1,3.8,14.2C42.3,31.4,42.6,31.9,43.2,32.1z"/>
<path class="st0" d="M72.3,57.9c0.1,0,11-3.3,15.8,3.4c0.2,0.3,0.5,0.4,0.8,0.4c0.2,0,0.4-0.1,0.6-0.2c0.4-0.3,0.6-0.9,0.2-1.4
	c-5.6-7.8-17.5-4.3-18-4.1c-0.5,0.2-0.8,0.7-0.7,1.2C71.2,57.7,71.8,58,72.3,57.9z"/>
</svg>
