<svg id="Layer_1" data-name="Layer 1" xmlns="http://www.w3.org/2000/svg" viewBox="0 0 100 100">
  <defs>
    <style>
      .cls-1 {
        fill: #fff;
      }
    </style>
  </defs>
  <title>No meat</title>
  <g>
    <path class="cls-1" d="M48.63,32A1.5,1.5,0,0,0,51,30.15a7.22,7.22,0,0,1,0-9.09c4.18-5.21,1.78-10.19-.08-12.09a1.5,1.5,0,0,0-2.15,2.09c.14.15,3.47,3.66-.11,8.12A10.22,10.22,0,0,0,48.63,32Z"/>
    <path class="cls-1" d="M59.39,34.1a1.5,1.5,0,0,0,2.1.21,1.51,1.51,0,0,0,.23-2.1,3.84,3.84,0,0,1,0-4.84,6,6,0,0,0-.09-8.17A1.5,1.5,0,0,0,59.5,21.3a3.06,3.06,0,0,1-.1,4.2A6.83,6.83,0,0,0,59.39,34.1Z"/>
    <path class="cls-1" d="M37.25,34.1a1.5,1.5,0,0,0,2.32-1.9,3.84,3.84,0,0,1,0-4.83,6,6,0,0,0-.09-8.17,1.5,1.5,0,1,0-2.15,2.09,3.06,3.06,0,0,1-.1,4.2A6.83,6.83,0,0,0,37.25,34.1Z"/>
    <path class="cls-1" d="M90.06,45.7c0-1.3,0-3.94-16.06-5.69L87.69,24.55a6.12,6.12,0,1,0-9.57-7.61L62.35,39.12c-4-.19-8.12-.29-12.34-.3h-.42a210.69,210.69,0,0,0-27,1.53c-11,1.5-12.58,3.39-12.6,5.21h0c0,.45.19,29.93,26.94,37.27.1.08.29.26.42.38a3.83,3.83,0,0,0,1.81,1.17,51.17,51.17,0,0,0,10.7,1.09h.08a51.83,51.83,0,0,0,9.81-.89,3.58,3.58,0,0,0,1.79-1.14c.11-.11.27-.26.36-.34C87,76.91,89.6,51.54,89.88,46.64A2.43,2.43,0,0,0,90.06,45.7ZM71.58,42.77c9.51.91,13.76,2.17,15.12,2.93a14.46,14.46,0,0,1-3.62,1.19,125,125,0,0,0-13.4-2l1.87-2.11Zm-4.45,5,.09-.11h0c2.22.2,4.38.44,6.41.7-2.21.24-4.67.45-7.34.62A6.14,6.14,0,0,1,67.13,47.76ZM80.57,18.69a3.12,3.12,0,1,1,4.88,3.88L64.88,45.77A9.14,9.14,0,0,0,63,49.16c-3.07.15-6.39.25-9.93.28a6.12,6.12,0,0,1,3.42-1.74A9.2,9.2,0,0,0,62.59,44ZM50.22,48.09l-1,1.27-.06.09a220.29,220.29,0,0,1-23-1.19,209,209,0,0,1,23.71-1.4l1.53,0A9.2,9.2,0,0,0,50.22,48.09Zm-.64-6.26H50c3.49,0,6.93.08,10.27.21l-.13.18A6.17,6.17,0,0,1,58,44.07l-.27,0c-2.64-.11-5.3-.17-7.9-.17h-.27a184.09,184.09,0,0,0-32.73,2.78l-.26.08a13.26,13.26,0,0,1-3.31-1.13C16.07,43.93,29.47,41.83,49.58,41.83ZM61,80.23a3.64,3.64,0,0,0-1.64,1.09c-.11.11-.28.28-.38.35a50.64,50.64,0,0,1-9.19.81,48.3,48.3,0,0,1-10-1,5.64,5.64,0,0,1-.44-.4A3.85,3.85,0,0,0,37.75,80c-19.89-5.41-23.84-23.73-24.62-31.2a44.07,44.07,0,0,0,9.39,2.07A212,212,0,0,0,50,52.46h.42a210.69,210.69,0,0,0,27-1.53,45.58,45.58,0,0,0,9.2-2C85.75,56.47,81.42,75.25,61,80.23Z"/>
    <path class="cls-1" d="M61.31,58.52a14.91,14.91,0,0,0-21.16,13.9v0a12.46,12.46,0,0,0-1.67,3.09,1.5,1.5,0,0,0,2.86.91,9.86,9.86,0,0,1,1.16-2.11,13.82,13.82,0,0,0,4.7.82,14.75,14.75,0,0,0,8.2-2.58,14,14,0,0,0,6.71-12.92A1.5,1.5,0,0,0,61.31,58.52ZM53.76,70.08a11.39,11.39,0,0,1-9.13,1.78,24.39,24.39,0,0,1,7.26-4.77,1.5,1.5,0,1,0-1.21-2.74,28.5,28.5,0,0,0-7,4.33,11.66,11.66,0,0,1,4.86-6.56,11.89,11.89,0,0,1,10.65-1.24A11.22,11.22,0,0,1,53.76,70.08Z"/>
  </g>
</svg>
