<svg id="Layer_1" data-name="Layer 1" xmlns="http://www.w3.org/2000/svg" viewBox="0 0 526.07 921.57">
  <defs>
    <style>
      .cls-1 {
        fill: #e94e1b;
      }

      .cls-2 {
        fill: #e5cf00;
      }

      .cls-3 {
        fill: #82368c;
      }

      .cls-4 {
        fill: #36a9e1;
      }

      .cls-5 {
        fill: #95c11f;
      }

      .cls-6 {
        fill: #312783;
      }

      .cls-7 {
        fill: #e30613;
      }

      .cls-8 {
        fill: #e7d100;
      }
    </style>
  </defs>
  <title>roles</title>
  <g id="Learner">
    <g id="_Group_" data-name="&lt;Group&gt;">
      <path class="cls-1" d="M315.53,707.88h-105a7.44,7.44,0,0,1-6.73-11.66l52.5-90.93A7.83,7.83,0,0,1,263,601h0a7.83,7.83,0,0,1,6.73,4.28l52.5,90.93a7.44,7.44,0,0,1-6.73,11.66Zm-1-7Zm-101.9-2H313.41L263,611.64Zm103.07,0Zm-53.88-89.24h0Z"/>
    </g>
    <g id="_Group_2" data-name="&lt;Group&gt;">
      <rect class="cls-1" x="260.74" y="657.65" width="34.33" height="9" transform="translate(-293.82 227.64) rotate(-30)"/>
    </g>
    <g id="_Group_3" data-name="&lt;Group&gt;">
      <rect class="cls-1" x="243.67" y="644.98" width="9" height="34.34" transform="translate(-449.35 545.99) rotate(-60)"/>
    </g>
    <g id="_Group_4" data-name="&lt;Group&gt;">
      <rect class="cls-1" x="258.54" y="670.73" width="9" height="34.33"/>
    </g>
  </g>
  <g id="Master">
    <g id="_Group_5" data-name="&lt;Group&gt;">
      <path class="cls-2" d="M263,514.25a7.59,7.59,0,0,1-6.52-4.15L204,419.17a7.19,7.19,0,0,1,6.52-11.29h105A7.19,7.19,0,0,1,322,419.17l-52.5,90.93A7.59,7.59,0,0,1,263,514.25Zm-1-8.19Zm-49.8-89.68,50.8,88,50.8-88Zm-2,0Z"/>
    </g>
    <g id="_Group_6" data-name="&lt;Group&gt;">
      <rect class="cls-2" x="259.68" y="425.58" width="61.33" height="8.5" transform="translate(-176.01 202.74) rotate(-30)"/>
    </g>
    <g id="_Group_7" data-name="&lt;Group&gt;">
      <rect class="cls-2" x="232.98" y="399.17" width="8.5" height="61.33" transform="translate(-253.63 420.36) rotate(-60)"/>
    </g>
    <g id="_Group_8" data-name="&lt;Group&gt;">
      <rect class="cls-2" x="258.73" y="445.17" width="8.5" height="61.33"/>
    </g>
  </g>
  <g id="Part">
    <g id="_Group_9" data-name="&lt;Group&gt;">
      <path class="cls-3" d="M263,159a9.51,9.51,0,0,1-4.71-1.18l-47-27.12a10,10,0,0,1-4.71-8.15V68.32a10,10,0,0,1,4.7-8.15l47-27.12a10,10,0,0,1,9.41,0l47,27.12a10,10,0,0,1,4.71,8.15v54.23a10,10,0,0,1-4.71,8.15l-47,27.12A9.51,9.51,0,0,1,263,159Zm-.28-9a1.49,1.49,0,0,0,.57,0l46.81-27a1.5,1.5,0,0,0,.28-.49V68.41a1.49,1.49,0,0,0-.28-.49l-46.81-27a1.49,1.49,0,0,0-.57,0l-46.81,27a1.5,1.5,0,0,0-.28.49v54.05a1.51,1.51,0,0,0,.28.49Zm.6,0Zm-.63,0Zm47.39-27Zm0-55.08ZM216,67.9Zm47.39-27Zm-.63,0Z"/>
    </g>
    <g id="_Group_10" data-name="&lt;Group&gt;">
      <rect class="cls-3" x="259.25" y="75.89" width="56.59" height="9" transform="translate(-1.67 154.54) rotate(-30)"/>
    </g>
    <g id="_Group_11" data-name="&lt;Group&gt;">
      <rect class="cls-3" x="234.03" y="52.09" width="9" height="56.59" transform="translate(49.65 246.77) rotate(-60)"/>
    </g>
    <g id="_Group_12" data-name="&lt;Group&gt;">
      <rect class="cls-3" x="258.54" y="94.53" width="9" height="56.59"/>
    </g>
  </g>
  <g id="Teacher">
    <g id="_Group_13" data-name="&lt;Group&gt;">
      <path class="cls-4" d="M185.62,626H71.06a10.14,10.14,0,0,1-10.13-10.13V506.94a10.14,10.14,0,0,1,10.13-10.13H185.62a4.5,4.5,0,0,1,0,9H71.06a1.14,1.14,0,0,0-1.13,1.13V615.86A1.14,1.14,0,0,0,71.06,617H185.62a4.5,4.5,0,1,1,0,9Z"/>
    </g>
    <g id="_Group_14" data-name="&lt;Group&gt;">
      <path class="cls-4" d="M185.62,505.89a4.5,4.5,0,0,1-3.9-2.25l-18.07-31.3a4.5,4.5,0,1,1,7.79-4.5l18.07,31.3a4.5,4.5,0,0,1-3.89,6.75Z"/>
    </g>
    <g id="_Group_15" data-name="&lt;Group&gt;">
      <path class="cls-4" d="M167.54,537a4.5,4.5,0,0,1-3.89-6.76l18.07-31.15a4.5,4.5,0,1,1,7.79,4.52L171.44,534.8A4.5,4.5,0,0,1,167.54,537Z"/>
    </g>
  </g>
  <g id="Mentor">
    <g id="_Group_16" data-name="&lt;Group&gt;">
      <path class="cls-5" d="M95.6,397.18a4.5,4.5,0,0,1-4.5-4.5V280.32a4.5,4.5,0,0,1,9,0V392.68A4.5,4.5,0,0,1,95.6,397.18Z"/>
    </g>
    <g id="_Group_17" data-name="&lt;Group&gt;">
      <path class="cls-5" d="M155.45,314.58a4.5,4.5,0,0,1-4.5-4.5V280.32a4.5,4.5,0,0,1,9,0v29.76A4.5,4.5,0,0,1,155.45,314.58Z"/>
    </g>
    <g id="_Group_18" data-name="&lt;Group&gt;">
      <path class="cls-5" d="M155.28,284.82H125.53a4.5,4.5,0,1,1,0-9h29.76a4.5,4.5,0,0,1,0,9Z"/>
    </g>
    <g id="_Group_19" data-name="&lt;Group&gt;">
      <path class="cls-5" d="M151.65,397.18a4.49,4.49,0,0,1-3.18-1.32l-50.3-50.3a10.14,10.14,0,0,1,0-14.33l54.1-54.1a4.5,4.5,0,0,1,6.36,6.36l-54.1,54.1a1.14,1.14,0,0,0,0,1.6l50.3,50.3a4.5,4.5,0,0,1-3.18,7.68Z"/>
    </g>
  </g>
  <g id="Admin">
    <g id="_Group_20" data-name="&lt;Group&gt;">
      <path class="cls-6" d="M213.39,277.08a4.5,4.5,0,0,1-3.89-6.75l46.83-81.12A7.81,7.81,0,0,1,263,185h0a7.8,7.8,0,0,1,6.71,4.26l46.83,81.12a4.5,4.5,0,0,1-7.79,4.5L263,195.59l-45.75,79.24A4.5,4.5,0,0,1,213.39,277.08Z"/>
    </g>
    <g id="_Group_21" data-name="&lt;Group&gt;">
      <path class="cls-6" d="M263.07,270.56A44.89,44.89,0,0,1,226,251a4.5,4.5,0,0,1,7.43-5.08,35.89,35.89,0,0,0,59.39-.18,4.5,4.5,0,1,1,7.46,5A44.86,44.86,0,0,1,263.07,270.56Z"/>
    </g>
  </g>
  <g id="Guest">
    <g id="_Group_22" data-name="&lt;Group&gt;">
      <path class="cls-7" d="M252.07,893.78a7.07,7.07,0,0,1-3.6-1,7.87,7.87,0,0,1-3.68-7.07v-73A15.19,15.19,0,0,1,252,800.37l46.23-25.87a7.49,7.49,0,0,1,11.64,6.83v73a15.19,15.19,0,0,1-7.25,12.36l-46.23,25.87A9,9,0,0,1,252.07,893.78Zm-.21-9Zm49.06-101.46-44.48,24.89a6.29,6.29,0,0,0-2.64,4.51v71l44.48-24.89a6.29,6.29,0,0,0,2.64-4.51Zm1.93-1.07Z"/>
    </g>
    <g id="_Group_23" data-name="&lt;Group&gt;">
      <path class="cls-7" d="M249.43,866.4H226.32a10.18,10.18,0,0,1-10.17-10.17v-73a10.18,10.18,0,0,1,10.17-10.17h73.42a10.18,10.18,0,0,1,10.17,10.17v59.46h-9V783.23a1.19,1.19,0,0,0-1.17-1.17H226.32a1.19,1.19,0,0,0-1.17,1.17v73a1.19,1.19,0,0,0,1.17,1.17h23.11Z"/>
    </g>
  </g>
  <g>
    <path class="cls-6" d="M346.74,229.58h-4.46l11.52-23.1h4.46l11.55,23.1h-4.42l-2.51-5H349.22ZM356,211l-4.85,9.7h9.7Z"/>
    <path class="cls-6" d="M374.43,235.19h-4v-9.57h.5c2.28,0,3-1.75,3-6.6V206.48h11.22v19.14H388v9.57h-4v-5.61h-9.57ZM377.89,219c0,1.22,0,2.11-.07,2.71a7.64,7.64,0,0,1-1.16,3.89h4.52V210.44h-3.3Z"/>
    <path class="cls-6" d="M394.23,229.58h-4v-23.1h3.93l9.27,9.6,9.27-9.6h3.93v23.1h-4V212.06l-9.24,9.57-9.24-9.57Z"/>
    <path class="cls-6" d="M433,229.58h-4v-13.2l-5.12,13.2h-4v-23.1h4v13.2l5.12-13.2h4Z"/>
    <path class="cls-6" d="M459.08,229.58h-4V220H440.26v9.57h-4v-23.1h4v9.57h14.85v-9.57h4Z"/>
    <path class="cls-6" d="M475.41,229.58h-4v-13.2l-5.12,13.2h-4v-23.1h4v13.2l5.12-13.2h4Z"/>
    <path class="cls-6" d="M478.71,220v-4H492.9v4Z"/>
    <path class="cls-6" d="M364.57,249.91l-2.71,2.71a8.44,8.44,0,0,0-6.54-3.07,7.81,7.81,0,0,0-5.81,2.34,8.38,8.38,0,0,0,0,11.49,7.81,7.81,0,0,0,5.81,2.34,8.44,8.44,0,0,0,6.54-3.07l2.71,2.71a11.68,11.68,0,0,1-9.24,4.32,11.49,11.49,0,0,1-8.61-3.5,12.36,12.36,0,0,1,0-17.1,11.49,11.49,0,0,1,8.61-3.5A11.68,11.68,0,0,1,364.57,249.91Z"/>
    <path class="cls-6" d="M366.87,250v-4h13.2v4h-4.62v19.14h-4V250Z"/>
    <path class="cls-6" d="M386.67,260.93v8.25h-4v-23.1h4.62a7.67,7.67,0,0,1,5.51,2.11,7,7,0,0,1,2.25,5.31,7.1,7.1,0,0,1-2.25,5.35,7.79,7.79,0,0,1-5.51,2.08Zm0-10.89V257h.66a3.48,3.48,0,1,0,0-6.93Z"/>
    <path class="cls-6" d="M396.57,269.18h-4.46l11.52-23.1h4.46l11.55,23.1h-4.42l-2.51-5H399Zm9.31-18.61-4.85,9.7h9.7Z"/>
    <path class="cls-6" d="M418,250v-4h13.2v4h-4.62v19.14h-4V250Z"/>
    <path class="cls-6" d="M432.18,257.63a12.06,12.06,0,1,1,3.53,8.52A11.61,11.61,0,0,1,432.18,257.63Zm4,0a8.11,8.11,0,1,0,2.38-5.71A7.81,7.81,0,0,0,436.14,257.63Z"/>
    <path class="cls-6" d="M463.2,260.93v8.25h-4v-23.1h4.62a7.67,7.67,0,0,1,5.51,2.11,7,7,0,0,1,2.25,5.31,7.1,7.1,0,0,1-2.25,5.35,7.79,7.79,0,0,1-5.51,2.08Zm0-10.89V257h.66a3.48,3.48,0,1,0,0-6.93Z"/>
  </g>
  <g>
    <path class="cls-3" d="M347.57,108.83h-4V85.72h3.93l9.27,9.6,9.27-9.6H370v23.1h-4V91.3l-9.24,9.57-9.24-9.57Z"/>
    <path class="cls-3" d="M376.44,108.83H372l11.52-23.1H388l11.55,23.1h-4.42l-2.51-5H378.92Zm9.31-18.61-4.85,9.7h9.7Z"/>
    <path class="cls-3" d="M420.47,89.55l-2.71,2.71a8.44,8.44,0,0,0-6.54-3.07,7.81,7.81,0,0,0-5.81,2.34,8.38,8.38,0,0,0,0,11.49,7.81,7.81,0,0,0,5.81,2.34,8.44,8.44,0,0,0,6.54-3.07l2.71,2.71a11.68,11.68,0,0,1-9.24,4.32,11.49,11.49,0,0,1-8.61-3.5,12.36,12.36,0,0,1,0-17.1,11.49,11.49,0,0,1,8.61-3.5A11.68,11.68,0,0,1,420.47,89.55Z"/>
    <path class="cls-3" d="M422.77,89.68v-4H436v4h-4.62v19.14h-4V89.68Z"/>
    <path class="cls-3" d="M449.5,85.72v4h-6.93v5.61h6.6v4h-6.6v5.61h6.93v4H438.61V85.72Z"/>
    <path class="cls-3" d="M456.76,100.57v8.25h-4V85.72h4.62a7.67,7.67,0,0,1,5.51,2.11,7,7,0,0,1,2.25,5.31,7.1,7.1,0,0,1-2.25,5.35,7.79,7.79,0,0,1-5.51,2.08Zm0-10.89v6.93h.66a3.48,3.48,0,1,0,0-6.93Z"/>
  </g>
  <g>
    <path class="cls-5" d="M196.44,330.9h4v9.87L206,330.9h4.52L204,342.45,210.5,354H206l-5.58-9.84V354h-4Z"/>
    <path class="cls-5" d="M215.19,347.24h4v1.16a2.12,2.12,0,0,0,2.15,2.15,1.89,1.89,0,0,0,1.62-1.06l.92-1.52L211.16,330.9h4.92l10,13.43,8.12-13.43h4.59l-12.51,20.69a5.44,5.44,0,0,1-5,2.9,5.82,5.82,0,0,1-4.36-1.78,6,6,0,0,1-1.75-4.32Z"/>
    <path class="cls-5" d="M245,345.75V354h-4V330.9h4.62a7.67,7.67,0,0,1,5.51,2.11,7,7,0,0,1,2.25,5.31,7.1,7.1,0,0,1-2.25,5.35,7.79,7.79,0,0,1-5.51,2.08Zm0-10.89v6.93h.66a3.48,3.48,0,1,0,0-6.93Z"/>
    <path class="cls-5" d="M254.92,354h-4.46L262,330.9h4.46L278,354h-4.42l-2.51-5H257.39Zm9.31-18.61-4.85,9.7h9.7Z"/>
    <path class="cls-5" d="M276.34,334.86v-4h13.2v4h-4.62V354h-4V334.86Z"/>
    <path class="cls-5" d="M290.53,342.45a12.06,12.06,0,1,1,3.53,8.52A11.61,11.61,0,0,1,290.53,342.45Zm4,0a8.11,8.11,0,1,0,2.38-5.71A7.8,7.8,0,0,0,294.49,342.45Z"/>
    <path class="cls-5" d="M321.55,345.75V354h-4V330.9h4.62a7.67,7.67,0,0,1,5.51,2.11,7,7,0,0,1,2.25,5.31,7.1,7.1,0,0,1-2.25,5.35,7.79,7.79,0,0,1-5.51,2.08Zm0-10.89v6.93h.66a3.48,3.48,0,1,0,0-6.93Z"/>
  </g>
  <g>
    <path class="cls-8" d="M346.64,466.86h4V468a2.12,2.12,0,0,0,2.15,2.15,1.89,1.89,0,0,0,1.62-1.06l.92-1.52-12.67-17.06h4.92l10,13.43,8.12-13.43h4.59L357.7,471.22a5.44,5.44,0,0,1-5,2.9,5.83,5.83,0,0,1-4.36-1.78,6,6,0,0,1-1.75-4.32Z"/>
    <path class="cls-8" d="M376.48,473.63h-4v-23.1h3.93l9.27,9.6,9.27-9.6h3.93v23.1h-4V456.1l-9.24,9.57-9.24-9.57Z"/>
    <path class="cls-8" d="M413.11,450.52v4h-6.93v5.61h6.6v4h-6.6v5.61h6.93v4H402.21v-23.1Z"/>
    <path class="cls-8" d="M415.41,469.83a2.27,2.27,0,0,0,.66.1c1.06,0,1.75-.73,2-2.14a36.51,36.51,0,0,0,.5-7.2V450.52h11.22v23.1h-4V454.32h-3.47v6.44c0,4.52-.4,7.82-1.22,9.9a4.32,4.32,0,0,1-4.32,3.1,7,7,0,0,1-1.45-.13Z"/>
    <path class="cls-8" d="M444,450.52v4H437.1v5.61h6.6v4h-6.6v5.61H444v4H433.14v-23.1Z"/>
    <path class="cls-8" d="M459,473.63H447.32v-23.1h4v19.14h5V450.52h4v19.14H463v9.57h-4Z"/>
  </g>
  <g>
    <path class="cls-4" d="M150.59,572.23h-4v-23.1h13.2v23.1h-4V553.08h-5.28Z"/>
    <path class="cls-4" d="M167.09,564v8.25h-4v-23.1h4.62a7.67,7.67,0,0,1,5.51,2.11,7,7,0,0,1,2.25,5.31,7.1,7.1,0,0,1-2.25,5.35,7.79,7.79,0,0,1-5.51,2.08Zm0-10.89V560h.66a3.48,3.48,0,1,0,0-6.93Z"/>
    <path class="cls-4" d="M189.37,549.12v4h-6.93v5.61H189v4h-6.6v5.61h6.93v4H178.47v-23.1Z"/>
    <path class="cls-4" d="M196.62,572.23h-4v-23.1h13.2v23.1h-4V553.08h-5.28Z"/>
    <path class="cls-4" d="M208.83,560.67a12.06,12.06,0,1,1,3.53,8.51A11.61,11.61,0,0,1,208.83,560.67Zm4,0a8.11,8.11,0,1,0,2.38-5.71A7.81,7.81,0,0,0,212.79,560.67Z"/>
    <path class="cls-4" d="M237.88,577.84h-4v-9.57h.5c2.28,0,3-1.75,3-6.6V549.12H248.6v19.14h2.8v9.57h-4v-5.61h-9.57Zm3.46-16.17c0,1.22,0,2.11-.07,2.71a7.64,7.64,0,0,1-1.16,3.89h4.52V553.08h-3.3Z"/>
    <path class="cls-4" d="M256.85,572.23H252.4l11.52-23.1h4.46l11.55,23.1H275.5l-2.51-5H259.33Zm9.31-18.62-4.85,9.7H271Z"/>
    <path class="cls-4" d="M291.3,560.34a6.31,6.31,0,0,1,2.81,5.41,6,6,0,0,1-2,4.65,7,7,0,0,1-4.92,1.82H281.9v-23.1h5.28a6.65,6.65,0,0,1,4.69,1.75,5.7,5.7,0,0,1,1.91,4.46A6,6,0,0,1,291.3,560.34Zm-5.45-1.95h1.32a2.63,2.63,0,0,0,2.64-2.67,2.61,2.61,0,0,0-2.64-2.64h-1.32Zm0,4v5.91h1.32a2.93,2.93,0,0,0,3-2.94,3,3,0,0,0-2.87-3Z"/>
    <path class="cls-4" d="M299.22,572.23h-4.46l11.52-23.1h4.46l11.55,23.1h-4.42l-2.51-5H301.7Zm9.31-18.62-4.85,9.7h9.7Z"/>
    <path class="cls-4" d="M320.64,553.08v-4h13.2v4h-4.62v19.14h-4V553.08Z"/>
    <path class="cls-4" d="M347.37,549.12v4h-6.93v5.61H347v4h-6.6v5.61h6.93v4H336.48v-23.1Z"/>
    <path class="cls-4" d="M349.68,568.43a2.27,2.27,0,0,0,.66.1c1.06,0,1.75-.73,2-2.14a36.51,36.51,0,0,0,.5-7.2V549.12H364.1v23.1h-4V552.92h-3.47v6.44c0,4.52-.4,7.82-1.22,9.9a4.32,4.32,0,0,1-4.32,3.1,7,7,0,0,1-1.45-.13Z"/>
    <path class="cls-4" d="M371.36,557.37H372a7.67,7.67,0,0,1,5.51,2.11,7,7,0,0,1,2.25,5.31,7.1,7.1,0,0,1-2.25,5.35,7.79,7.79,0,0,1-5.51,2.08H367.4v-23.1h4Zm0,4v6.93H372a3.48,3.48,0,1,0,0-6.93Z"/>
  </g>
  <g>
    <path class="cls-1" d="M346.64,664h4v1.16a2.12,2.12,0,0,0,2.15,2.15,1.89,1.89,0,0,0,1.62-1.06l.92-1.52-12.67-17.06h4.92l10,13.43,8.12-13.43h4.59L357.7,668.32a5.44,5.44,0,0,1-5,2.9,5.83,5.83,0,0,1-4.36-1.78,6,6,0,0,1-1.75-4.32Z"/>
    <path class="cls-1" d="M384.73,670.73h-4v-8.35a5,5,0,0,1-3.3,1.09c-3.46,0-5.28-2.57-5.28-6.27v-9.57h4v9.24c0,1.62.86,2.64,2.31,2.64a2.3,2.3,0,0,0,2.31-2.54v-9.34h4Z"/>
    <path class="cls-1" d="M398.92,647.63v4H392v5.61h6.6v4H392v5.61h6.93v4H388v-23.1Z"/>
    <path class="cls-1" d="M425,670.73h-4v-9.57H406.17v9.57h-4v-23.1h4v9.57H421v-9.57h4Z"/>
    <path class="cls-1" d="M441.32,670.73h-4v-13.2l-5.12,13.2h-4v-23.1h4v13.2l5.12-13.2h4Z"/>
    <path class="cls-1" d="M444.62,647.63h4v9.87l5.58-9.87h4.52l-6.5,11.55,6.5,11.55h-4.52l-5.58-9.84v9.84h-4Z"/>
  </g>
  <g>
    <path class="cls-7" d="M347.57,833.53h-4v-23.1H354.5v4h-6.93Z"/>
    <path class="cls-7" d="M355.49,822A12.06,12.06,0,1,1,359,830.5,11.61,11.61,0,0,1,355.49,822Zm4,0a8.11,8.11,0,1,0,2.38-5.71A7.81,7.81,0,0,0,359.45,822Z"/>
    <path class="cls-7" d="M403.5,814.26,400.8,817a8.44,8.44,0,0,0-6.54-3.07,7.81,7.81,0,0,0-5.81,2.34,8.38,8.38,0,0,0,0,11.49,7.81,7.81,0,0,0,5.81,2.34A8.45,8.45,0,0,0,400.8,827l2.71,2.71a11.68,11.68,0,0,1-9.24,4.32,11.49,11.49,0,0,1-8.61-3.5,12.36,12.36,0,0,1,0-17.1,11.49,11.49,0,0,1,8.61-3.5A11.68,11.68,0,0,1,403.5,814.26Z"/>
    <path class="cls-7" d="M405.81,814.39v-4H419v4h-4.62v19.14h-4V814.39Z"/>
    <path class="cls-7" d="M425.61,818.68h.66a7.67,7.67,0,0,1,5.51,2.11,7,7,0,0,1,2.25,5.31,7.1,7.1,0,0,1-2.25,5.35,7.79,7.79,0,0,1-5.51,2.08h-4.62v-23.1h4Zm0,4v6.93h.66a3.48,3.48,0,1,0,0-6.93Z"/>
  </g>
</svg>
