<?xml version="1.0" encoding="utf-8"?>
<!-- Generator: Adobe Illustrator 16.0.0, SVG Export Plug-In . SVG Version: 6.00 Build 0)  -->
<!DOCTYPE svg PUBLIC "-//W3C//DTD SVG 1.1//EN" "http://www.w3.org/Graphics/SVG/1.1/DTD/svg11.dtd">
<svg version="1.1" id="Layer_1" xmlns="http://www.w3.org/2000/svg" xmlns:xlink="http://www.w3.org/1999/xlink" x="0px" y="0px"
	 width="559.165px" height="161.667px" viewBox="0 0 559.165 161.667" enable-background="new 0 0 559.165 161.667"
	 xml:space="preserve">
<g>
	<path id="y" fill="#FFFFFF" d="M430.26,33.487c3.113-2.27,6.207-3.405,9.285-3.405c4.938,0,9.535,2.575,13.809,7.743l15.416,19.152
		l15.604-19.152c4.227-5.16,8.84-7.743,13.806-7.743c3.079,0,6.17,1.135,9.279,3.405c1.66,1.246,3.048,2.895,4.215,4.938
		c1.462,2.622,2.194,5.358,2.194,8.207c0,3.469-1.039,6.391-3.143,8.743l-26.097,28.57v31.695c0,4.415-1.509,8.19-4.54,11.347
		c-2.99,3.255-6.715,4.87-11.212,4.87c-4.366,0-8.14-1.628-11.344-4.87c-2.979-2.979-4.467-6.763-4.467-11.347V83.945
		l-26.096-28.571c-2.1-2.355-3.146-5.274-3.146-8.743c0-2.807,0.716-5.542,2.141-8.207C427.23,36.333,428.659,34.686,430.26,33.487z
		"/>
	<path id="e" fill="#FFFFFF" d="M348.376,120.254c-0.85-1.956-1.273-3.965-1.273-6V47.168c0-2.985,0.7-5.701,2.072-8.142
		c1.377-2.45,3.26-4.374,5.679-5.774c2.396-1.399,5.12-2.104,8.142-2.104h37.567c2.283,0,4.446,0.616,6.502,1.834
		c2.079,1.227,3.714,2.885,4.94,4.97c1.228,2.091,1.846,4.431,1.846,7.009c0,2.533-0.618,4.872-1.846,7.009
		c-1.225,2.134-2.857,3.825-4.94,5.077c-2.062,1.24-4.32,1.86-6.766,1.86h-21.634v8.348h17.818c1.912,0,3.805,0.385,5.682,1.167
		c1.874,0.772,3.475,1.836,4.801,3.17c1.334,1.16,2.365,2.555,3.078,4.175c0.705,1.627,1.056,3.298,1.056,5.05
		c0,3.646-1.418,6.819-4.266,9.536c-3.062,2.629-6.467,3.931-10.208,3.931H378.68v8.62h20.551c4.092,0,7.628,1.429,10.607,4.274
		c1.434,1.206,2.502,2.649,3.211,4.368c0.716,1.719,1.064,3.472,1.064,5.302c0,3.783-1.378,6.985-4.146,9.604
		c-3.062,2.724-6.516,4.079-10.342,4.079h-36.779c-2.927,0-5.721-0.922-8.372-2.776
		C351.814,125.905,349.789,123.418,348.376,120.254z"/>
	<path id="l" fill="#FFFFFF" d="M285.551,130.526c-4.722,0-8.66-1.609-11.818-4.828c-3.16-3.229-4.739-7.359-4.739-12.38V46.034
		c0-2.091,0.411-4.14,1.236-6.141c0.818-2.001,1.957-3.743,3.438-5.206c3.069-3.07,6.808-4.602,11.206-4.602
		c2.135,0,4.172,0.388,6.105,1.166c1.933,0.778,3.595,1.929,4.98,3.438c3.204,3.206,4.8,7.034,4.8,11.48v56.857h23.097
		c2.494,0,4.753,0.613,6.77,1.842c2.03,1.23,3.628,2.923,4.819,5.108c1.177,2.176,1.761,4.518,1.761,7.008
		c-0.041,3.774-1.36,6.988-3.968,9.605c-2.595,2.615-5.725,3.93-9.372,3.93L285.551,130.526L285.551,130.526z"/>
	<path id="o" fill="#FFFFFF" d="M163.72,109.233c-2.007-2.843-3.684-5.854-5.047-9.037c-1.357-3.184-2.374-6.388-3.069-9.614
		c-0.692-3.224-1.034-6.484-1.034-9.769c0-3.211,0.342-6.435,1.034-9.691c0.684-3.254,1.725-6.485,3.1-9.709
		c1.377-3.229,3.048-6.241,5.004-9.042c3.205-4.676,7.07-8.701,11.61-12.086c4.539-3.383,9.517-5.973,14.917-7.774
		c5.402-1.803,10.956-2.702,16.65-2.702c4.271,0,8.484,0.508,12.651,1.534c4.161,1.029,8.141,2.528,11.943,4.508
		c3.811,1.977,7.278,4.351,10.41,7.103c3.144,2.76,5.884,5.901,8.246,9.415c6.098,8.807,9.144,18.28,9.144,28.434
		c0,5.022-0.783,9.952-2.337,14.785c-1.555,4.826-3.823,9.377-6.802,13.645c-2.362,3.432-5.162,6.574-8.411,9.451
		c-3.248,2.862-6.661,5.234-10.24,7.1c-3.584,1.874-7.509,3.34-11.776,4.434c-4.268,1.094-8.542,1.641-12.813,1.641
		c-5.695,0-11.243-0.896-16.65-2.67c-5.406-1.785-10.392-4.378-14.955-7.803C170.733,117.955,166.87,113.911,163.72,109.233z
		 M185.871,80.815c0,4.398,0.948,8.402,2.838,12.006c1.891,3.604,4.429,6.393,7.609,8.38c3.179,1.981,6.666,2.974,10.445,2.974
		c1.335,0,2.717-0.13,4.141-0.399c2.533-0.536,4.825-1.466,6.875-2.801c2.043-1.334,3.856-3.026,5.438-5.063
		c1.578-2.052,2.79-4.331,3.634-6.841c0.845-2.513,1.267-5.212,1.267-8.104c0-1.376-0.128-2.842-0.398-4.404
		c-0.668-3.876-1.966-7.215-3.91-10.017c-1.927-2.807-4.366-5.002-7.304-6.611c-2.935-1.597-6.135-2.396-9.608-2.396
		c-3.867,0-7.402,0.988-10.607,2.968c-3.205,1.981-5.737,4.771-7.608,8.374C186.804,72.46,185.871,76.447,185.871,80.815z"/>
	<path id="o_1_" fill="#FFFFFF" d="M50.016,109.233c-2.006-2.843-3.683-5.854-5.046-9.037c-1.357-3.184-2.374-6.388-3.068-9.614
		c-0.692-3.224-1.035-6.484-1.035-9.769c0-3.211,0.343-6.435,1.035-9.691c0.684-3.254,1.723-6.485,3.1-9.709
		c1.377-3.229,3.048-6.241,5.003-9.042c3.206-4.676,7.07-8.701,11.61-12.086c4.539-3.383,9.517-5.973,14.917-7.774
		c5.402-1.803,10.956-2.702,16.649-2.702c4.271,0,8.485,0.508,12.651,1.534c4.161,1.029,8.141,2.528,11.944,4.508
		c3.812,1.977,7.278,4.351,10.411,7.103c3.143,2.76,5.882,5.901,8.245,9.415c6.098,8.807,9.144,18.28,9.144,28.434
		c0,5.022-0.783,9.952-2.337,14.785c-1.555,4.826-3.823,9.377-6.802,13.645c-2.362,3.432-5.162,6.574-8.41,9.451
		c-3.25,2.862-6.661,5.234-10.241,7.1c-3.584,1.874-7.508,3.34-11.775,4.434c-4.268,1.094-8.543,1.641-12.813,1.641
		c-5.695,0-11.244-0.896-16.65-2.67c-5.405-1.785-10.393-4.378-14.955-7.803C57.029,117.955,53.166,113.911,50.016,109.233z
		 M72.168,80.815c0,4.398,0.947,8.402,2.838,12.006c1.892,3.604,4.428,6.393,7.609,8.38c3.178,1.981,6.667,2.974,10.445,2.974
		c1.334,0,2.716-0.13,4.14-0.399c2.533-0.536,4.826-1.466,6.875-2.801c2.042-1.334,3.856-3.026,5.438-5.063
		c1.577-2.052,2.789-4.331,3.633-6.841c0.846-2.513,1.266-5.212,1.266-8.104c0-1.376-0.127-2.842-0.398-4.404
		c-0.667-3.876-1.964-7.215-3.909-10.017c-1.927-2.807-4.366-5.002-7.303-6.611c-2.936-1.597-6.135-2.396-9.609-2.396
		c-3.866,0-7.401,0.988-10.606,2.968c-3.205,1.981-5.738,4.771-7.609,8.374C73.101,72.46,72.168,76.447,72.168,80.815z"/>
</g>
</svg>
